# xmcd
#
# Track frame offsets: 
#        150
#        24854
#        44961
#        68133
#        93518
#        117132
#        124743
#        145687
#        164021
#        176036
#        199438
#        220211
#
# Disc length: 3343 seconds
#
# Revision: 1
# Processed by: cddbd v1.5.2PL0 Copyright (c) Steve Scherf et al.
# Submitted via: ExactAudioCopy v0.99pb5
#
DISCID=b60d0d0c
DTITLE=Björk - Vespertine
DYEAR=2001
DGENRE=Pop
TTITLE0=Hidden Place
TTITLE1=Cocoon
TTITLE2=It's Not Up To You
TTITLE3=Undo
TTITLE4=Pagan Poetry
TTITLE5=Frosti
TTITLE6=Aurora
TTITLE7=An Echo, A Stain
TTITLE8=Sun In My Mouth
TTITLE9=Heirloom
TTITLE10=Harm Of Will
TTITLE11=Unison
EXTD=
EXTT0=
EXTT1=
EXTT2=
EXTT3=
EXTT4=
EXTT5=
EXTT6=
EXTT7=
EXTT8=
EXTT9=
EXTT10=
EXTT11=
PLAYORDER=
